<svg height="484pt" viewBox="-48 1 484 484.906" width="484pt" xmlns="http://www.w3.org/2000/svg"><path d="m105.554688 40.417969h177.832031v129.332031h-177.832031zm0 0" fill="#fdbd40"/><path d="m234.886719 8.082031h48.5v32.335938h-48.5zm0 0" fill="#fcf05a"/><path d="m226.804688 105.082031c0 17.859375-14.476563 32.335938-32.332032 32.335938-17.859375 0-32.335937-14.476563-32.335937-32.335938 0-17.855469 14.476562-32.332031 32.335937-32.332031 17.855469 0 32.332032 14.476562 32.332032 32.332031zm0 0" fill="#fcf05a"/><path d="m213.324219 307.167969c-18.867188 0-18.867188 16.167969-37.730469 16.167969-7.652344-.113282-14.914062-3.398438-20.050781-9.070313-.898438 2.945313-1.398438 5.992187-1.488281 9.070313 0 24.25 40.417968 40.414062 40.417968 40.414062s40.417969-16.164062 40.417969-40.414062c-.0625-2.226563-.359375-4.433594-.890625-6.597657-5.269531-5.914062-12.753906-9.382812-20.675781-9.570312zm0 0" fill="#cfdfe8"/><path d="m213.324219 307.167969c7.921875.1875 15.40625 3.65625 20.675781 9.570312-5.675781-25.472656-39.527344-66.15625-39.527344-66.15625s-31.746094 38.136719-38.929687 63.683594c5.136719 5.671875 12.398437 8.957031 20.050781 9.066406 18.863281 0 18.863281-16.164062 37.730469-16.164062zm0 0" fill="#5f79ba"/><path d="m40.886719 161.667969v118l-14.515625 3.757812c-10.617188 2.90625-17.941406 12.613281-17.816406 23.621094v.007813c-.304688 13.097656 10.066406 23.960937 23.164062 24.265624 2.039062.046876 4.078125-.167968 6.0625-.644531l23.195312-6c7.300782-2 12.332032-8.667969 12.246094-16.238281v-154.855469zm0 0" fill="#e9686a"/><path d="m315.722656 202.082031h48.5v97h-48.5zm0 0" fill="#5f79ba"/><path d="m315.722656 169.75h48.5v32.332031h-48.5zm0 0" fill="#87cee9"/><path d="m323.804688 137.417969h32.332031c4.464843 0 8.085937 3.617187 8.085937 8.082031v24.25h-48.5v-24.25c0-4.464844 3.617188-8.082031 8.082032-8.082031zm0 0" fill="#fcf05a"/><path d="m315.722656 299.082031 24.25 48.503907 24.25-48.503907zm0 0" fill="#f6bf9b"/><path d="m218.722656 476.917969h-48.5l8.082032-113.167969h32.332031zm0 0" fill="#87cee9"/><g fill="#e9686a"><path d="m186.386719 194h16.167969v32.332031h-16.167969zm0 0"/><path d="m101.929688 290.148438 7.230468-14.460938 32.332032 16.167969-7.230469 14.460937zm0 0"/><path d="m247.425781 291.851562 32.332031-16.167968 7.230469 14.460937-32.332031 16.164063zm0 0"/><path d="m242.972656 64.667969h16.167969v16.164062h-16.167969zm0 0"/><path d="m129.804688 64.667969h16.167968v80.832031h-16.167968zm0 0"/></g><path d="m81.304688 88.917969c0-4.464844-3.621094-8.085938-8.085938-8.085938-13.386719-.011719-24.234375-10.859375-24.25-24.25 0-4.460937-3.617188-8.082031-8.082031-8.082031-4.464844 0-8.082031 3.617188-8.082031 8.082031-.015626 13.386719-10.863282 24.238281-24.25 24.25-4.464844 0-8.085938 3.621094-8.085938 8.085938 0 4.460937 3.621094 8.082031 8.085938 8.082031 13.386718.015625 24.234374 10.863281 24.25 24.25 0 4.464844 3.617187 8.082031 8.082031 8.082031 4.464843 0 8.082031-3.617187 8.082031-8.082031.015625-13.386719 10.863281-24.234375 24.25-24.25 4.464844 0 8.085938-3.617188 8.085938-8.082031zm-40.417969 8.332031c-2.355469-3.167969-5.164063-5.976562-8.332031-8.332031 3.167968-2.359375 5.976562-5.167969 8.332031-8.335938 2.359375 3.167969 5.167969 5.976563 8.335937 8.335938-3.167968 2.355469-5.976562 5.164062-8.335937 8.332031zm0 0" fill="#fcf05a"/><path d="m380.386719 32.332031c-13.386719-.015625-24.234375-10.863281-24.25-24.25 0-4.460937-3.617188-8.082031-8.082031-8.082031-4.464844 0-8.085938 3.617188-8.085938 8.082031-.011719 13.386719-10.859375 24.238281-24.246094 24.25-4.464844 0-8.085937 3.621094-8.085937 8.085938 0 4.464843 3.621093 8.082031 8.085937 8.082031 13.386719.015625 24.234375 10.863281 24.246094 24.25 0 4.464844 3.621094 8.082031 8.085938 8.082031 4.464843 0 8.082031-3.617187 8.082031-8.082031.015625-13.386719 10.863281-24.234375 24.25-24.25 4.464843 0 8.085937-3.617188 8.085937-8.082031 0-4.464844-3.621094-8.085938-8.085937-8.085938zm-32.332031 16.417969c-2.359376-3.167969-5.164063-5.976562-8.335938-8.332031 3.171875-2.359375 5.976562-5.167969 8.335938-8.335938 2.355468 3.167969 5.164062 5.976563 8.332031 8.335938-3.167969 2.355469-5.972657 5.164062-8.332031 8.332031zm0 0" fill="#fcf05a"/><path d="m137.886719 388c-13.386719-.015625-24.234375-10.863281-24.25-24.25 0-4.464844-3.617188-8.082031-8.082031-8.082031-4.464844 0-8.082032 3.617187-8.082032 8.082031-.015625 13.386719-10.863281 24.234375-24.25 24.25-4.464844 0-8.085937 3.617188-8.085937 8.082031 0 4.464844 3.621093 8.085938 8.085937 8.085938 13.386719.015625 24.234375 10.863281 24.25 24.25 0 4.460937 3.617188 8.082031 8.082032 8.082031 4.464843 0 8.082031-3.617188 8.082031-8.082031.015625-13.386719 10.863281-24.238281 24.25-24.25 4.464843 0 8.085937-3.621094 8.085937-8.085938-.003906-4.460937-3.621094-8.082031-8.085937-8.082031zm-32.332031 16.417969c-2.355469-3.167969-5.164063-5.976563-8.332032-8.335938 3.167969-2.355469 5.972656-5.164062 8.332032-8.332031 2.359374 3.167969 5.164062 5.976562 8.332031 8.332031-3.167969 2.359375-5.972657 5.167969-8.332031 8.335938zm0 0" fill="#fcf05a"/><path d="m105.554688 177.832031h177.832031c4.464843 0 8.085937-3.617187 8.085937-8.082031v-161.667969c0-4.460937-3.621094-8.082031-8.085937-8.082031h-48.5c-4.460938 0-8.082031 3.617188-8.082031 8.082031v24.25h-121.25c-4.464844 0-8.082032 3.621094-8.082032 8.085938v129.332031c0 4.464844 3.617188 8.082031 8.082032 8.082031zm137.417968-161.664062h32.332032v16.167969h-32.332032zm-129.335937 32.332031h161.667969v113.167969h-161.667969zm0 0"/><path d="m194.472656 64.667969c-22.324218 0-40.417968 18.09375-40.417968 40.414062 0 22.324219 18.09375 40.417969 40.417968 40.417969 22.320313 0 40.414063-18.09375 40.414063-40.417969-.023438-22.308593-18.105469-40.390625-40.414063-40.414062zm0 64.664062c-13.394531 0-24.25-10.855469-24.25-24.25 0-13.390625 10.855469-24.25 24.25-24.25 13.390625 0 24.25 10.859375 24.25 24.25-.015625 13.386719-10.863281 24.238281-24.25 24.25zm0 0"/><path d="m147.757812 312.085938c-1.105468 3.652343-1.707031 7.433593-1.789062 11.246093 0 16.242188 12.910156 28.777344 25.039062 36.972657-.429687.902343-.691406 1.875-.765624 2.871093l-8.085938 113.164063c-.320312 4.453125 3.03125 8.320312 7.484375 8.640625.191406.011719.386719.019531.582031.019531h48.5c4.460938.003906 8.082032-3.613281 8.082032-8.078125 0-.195313-.003907-.386719-.019532-.582031l-8.082031-113.164063c-.078125-.996093-.335937-1.96875-.769531-2.871093 12.128906-8.195313 25.039062-20.730469 25.039062-36.972657-.054687-2.8125-.417968-5.613281-1.082031-8.351562-6.03125-27.066407-39.773437-67.84375-41.207031-69.566407-2.855469-3.433593-7.949219-3.898437-11.378906-1.046874-.378907.316406-.730469.667968-1.046876 1.046874-1.339843 1.609376-32.933593 39.769532-40.5 66.664063zm31.144532 156.746093 6.929687-97h17.277344l6.929687 97zm15.5625-113.890625c-9.296875-4.28125-26.371094-14.222656-31.085938-25.707031l.160156.046875c1.566407.59375 3.179688 1.054688 4.824219 1.382812.390625.082032.796875.144532 1.203125.214844 1.988282.351563 4.003906.53125 6.027344.539063 9.0625.039062 17.761719-3.578125 24.128906-10.03125 3.453125-3.886719 8.398438-6.117188 13.597656-6.136719 1.414063-.011719 2.824219.132812 4.203126.4375.429687.09375.769531.285156 1.167968.414062.75.210938 1.480469.480469 2.1875.804688.449219.230469.863282.546875 1.292969.816406.558594.355469 1.128906.675782 1.683594 1.097656.542969.410157 1.113281.898438 1.675781 1.367188.355469.296875.699219.570312 1.074219.890625.121093.746094.1875 1.5.199219 2.257813 0 13.820312-21.484376 26.585937-32.339844 31.605468zm.019531-91.351562c8.796875 11.328125 16.738281 23.296875 23.761719 35.804687-.078125-.007812-.175782-.003906-.257813-.015625-1.546875-.195312-3.105469-.292968-4.667969-.296875-9.0625-.035156-17.757812 3.578125-24.121093 10.03125-3.457031 3.886719-8.40625 6.121094-13.605469 6.136719-1.296875 0-2.59375-.132812-3.863281-.402344-.351563-.070312-.671875-.171875-1-.265625-.777344-.214843-1.53125-.492187-2.257813-.835937-.289062-.136719-.585937-.261719-.863281-.414063-.878906-.488281-1.726563-1.042969-2.527344-1.652343l-.128906-.089844-.003906-.003906c7.796875-17.171876 17.71875-33.296876 29.535156-47.996094zm0 0"/><path d="m13.046875 332.949219c7.5625 5.921875 17.460937 7.980469 26.757813 5.554687l23.195312-6c10.871094-2.914062 18.398438-12.808594 18.304688-24.0625v-154.859375c-.003907-4.464843-3.625-8.085937-8.089844-8.082031-.660156 0-1.316406.082031-1.957032.242188l-32.332031 8.082031c-3.597656.902343-6.121093 4.132812-6.121093 7.84375v111.746093l-8.457032 2.183594c-17.421875 4.914063-27.558594 23.019532-22.644531 40.4375 1.886719 6.699219 5.863281 12.625 11.34375 16.914063zm15.347656-41.695313 14.519531-3.757812c3.566407-.925782 6.054688-4.144532 6.054688-7.828125v-111.691407l16.167969-4.039062v144.503906c.09375 3.886719-2.453125 7.339844-6.1875 8.40625l-23.191407 6.003906c-4.457031 1.148438-9.195312.15625-12.8125-2.683593-4.035156-3.152344-6.363281-8-6.308593-13.117188-.136719-7.332031 4.699219-13.828125 11.757812-15.796875zm0 0"/><path d="m308.199219 301.863281c.066406.179688.105469.359375.183593.53125.046876.097657.058594.207031.109376.304688l24.246093 48.5c2 3.992187 6.855469 5.609375 10.851563 3.613281 1.5625-.78125 2.828125-2.050781 3.613281-3.613281l24.25-48.5c.046875-.097657.0625-.207031.105469-.304688.078125-.171875.117187-.351562.183594-.53125.265624-.910156.453124-1.839843.5625-2.78125v-153.582031c-.007813-8.925781-7.242188-16.15625-16.167969-16.167969h-32.332031c-8.925782.011719-16.160157 7.242188-16.167969 16.167969v153.582031c.109375.941407.296875 1.871094.5625 2.78125zm15.605469-91.695312h32.332031v80.832031h-32.332031zm32.332031-16.167969h-32.332031v-16.167969h32.332031zm-16.164063 135.511719-11.171875-22.34375h22.339844zm-16.167968-184.011719h32.332031v16.167969h-32.332031zm0 0"/><path d="m186.386719 194h16.167969v32.332031h-16.167969zm0 0"/><path d="m101.929688 290.148438 7.230468-14.460938 32.332032 16.167969-7.230469 14.460937zm0 0"/><path d="m247.425781 291.851562 32.332031-16.167968 7.230469 14.460937-32.332031 16.164063zm0 0"/><path d="m242.972656 64.667969h16.167969v16.164062h-16.167969zm0 0"/><path d="m129.804688 64.667969h16.167968v80.832031h-16.167968zm0 0"/><path d="m8.554688 97c13.386718.015625 24.234374 10.863281 24.25 24.25 0 4.464844 3.617187 8.082031 8.082031 8.082031 4.464843 0 8.085937-3.617187 8.085937-8.082031.015625-13.386719 10.863282-24.234375 24.25-24.25 4.460938 0 8.082032-3.617188 8.082032-8.082031 0-4.464844-3.617188-8.085938-8.082032-8.085938-13.390625-.011719-24.238281-10.859375-24.253906-24.25 0-4.460937-3.617188-8.082031-8.082031-8.082031-4.464844 0-8.082031 3.617188-8.082031 8.082031-.015626 13.386719-10.863282 24.238281-24.25 24.25-4.464844 0-8.085938 3.621094-8.085938 8.085938.003906 4.464843 3.621094 8.082031 8.085938 8.082031zm32.332031-16.417969c2.359375 3.171875 5.167969 5.976563 8.335937 8.335938-3.167968 2.355469-5.976562 5.164062-8.335937 8.332031-2.355469-3.167969-5.164063-5.972656-8.332031-8.332031 3.167968-2.359375 5.976562-5.167969 8.332031-8.335938zm0 0"/><path d="m315.722656 48.5c13.386719.015625 24.234375 10.863281 24.246094 24.25 0 4.464844 3.621094 8.082031 8.085938 8.082031 4.464843 0 8.082031-3.617187 8.082031-8.082031.015625-13.386719 10.863281-24.234375 24.25-24.25 4.464843 0 8.085937-3.617188 8.085937-8.082031 0-4.464844-3.621094-8.085938-8.085937-8.085938-13.386719-.015625-24.234375-10.863281-24.25-24.25 0-4.460937-3.617188-8.082031-8.082031-8.082031-4.464844 0-8.085938 3.617188-8.085938 8.082031-.011719 13.386719-10.859375 24.238281-24.246094 24.25-4.464844 0-8.085937 3.621094-8.085937 8.085938 0 4.464843 3.621093 8.082031 8.085937 8.082031zm32.332032-16.417969c2.355468 3.167969 5.164062 5.976563 8.332031 8.335938-3.167969 2.355469-5.972657 5.164062-8.332031 8.332031-2.359376-3.167969-5.164063-5.976562-8.335938-8.332031 3.171875-2.359375 5.976562-5.167969 8.335938-8.335938zm0 0"/><path d="m65.136719 396.082031c0 4.464844 3.621093 8.085938 8.085937 8.085938 13.386719.015625 24.234375 10.863281 24.25 24.25 0 4.460937 3.617188 8.082031 8.082032 8.082031 4.464843 0 8.082031-3.617188 8.082031-8.082031.015625-13.386719 10.863281-24.238281 24.25-24.25 4.464843 0 8.085937-3.621094 8.085937-8.085938 0-4.460937-3.621094-8.082031-8.085937-8.082031-13.386719-.015625-24.234375-10.863281-24.25-24.25 0-4.464844-3.617188-8.082031-8.082031-8.082031-4.464844 0-8.082032 3.617187-8.082032 8.082031-.015625 13.386719-10.863281 24.234375-24.25 24.25-4.464844 0-8.085937 3.621094-8.085937 8.082031zm40.417969-8.332031c2.359374 3.167969 5.164062 5.976562 8.332031 8.332031-3.167969 2.359375-5.972657 5.167969-8.332031 8.335938-2.355469-3.167969-5.164063-5.976563-8.332032-8.335938 3.167969-2.355469 5.972656-5.164062 8.332032-8.332031zm0 0"/></svg>