<svg height="485pt" viewBox="0 0 485.00478 485" width="485pt" xmlns="http://www.w3.org/2000/svg"><path d="m347.511719 363.679688h129.308593v113.144531h-129.308593zm0 0" fill="#394d5c"/><path d="m63.265625 462.621094c3.097656-4.746094 5.433594-9.949219 6.929687-15.414063 1.269532-4.546875 2.0625-9.207031 2.371094-13.917969.113282-1.628906.167969-3.28125.167969-4.957031 0-26.78125-14.472656-48.492187-32.324219-48.492187h242.449219v-274.777344h-242.449219c17.851563 0 32.324219-21.707031 32.324219-48.488281.007813-4.84375-.476563-9.675781-1.453125-14.421875-.605469-2.953125-1.425781-5.855469-2.449219-8.691406-1.402343-3.933594-3.269531-7.6875-5.566406-11.175782-2.050781-3.140625-4.5625-5.953125-7.449219-8.351562-.898437-.734375-1.84375-1.417969-2.824218-2.039063-1.886719-1.210937-3.929688-2.160156-6.070313-2.828125-2.109375-.648437-4.304687-.980468-6.511719-.984375-17.855468 0-32.328125 21.710938-32.328125 48.492188v371.757812c0 26.78125 14.472657 48.488281 32.328125 48.488281 9.53125-.5625 18.128906-5.90625 22.855469-14.199218zm0 0" fill="#fdbd40"/><path d="m282.859375 8.085938h-242.449219c17.851563 0 32.324219 21.707031 32.324219 48.488281s-14.472656 48.492187-32.324219 48.492187h242.449219c17.855469 0 32.328125-21.710937 32.328125-48.492187s-14.476562-48.488281-32.328125-48.488281zm0 0" fill="#e97424"/><path d="m282.859375 379.839844h-242.449219c17.851563 0 32.324219 21.710937 32.324219 48.492187s-14.472656 48.492188-32.324219 48.492188h242.449219c17.855469 0 32.328125-21.710938 32.328125-48.492188s-14.476562-48.492187-32.328125-48.492187zm0 0" fill="#e97424"/><path d="m363.675781 331.351562h96.980469v32.328126h-96.980469zm0 0" fill="#aabece"/><path d="m363.675781 299.023438h96.980469c8.925781 0 16.164062 7.238281 16.164062 16.164062 0 8.929688-7.238281 16.164062-16.164062 16.164062h-96.980469c-8.925781 0-16.164062-7.234374-16.164062-16.164062 0-8.925781 7.238281-16.164062 16.164062-16.164062zm0 0" fill="#394d5c"/><path d="m396 8.085938h32.328125v290.9375h-32.328125zm0 0" fill="#5f79ba"/><path d="m396 258.617188s-32.292969-24.246094-40.210938-56.570313l23.949219-16.164063-31.933593-16.164062s-7.683594-88.898438 48.195312-153.550781zm0 0" fill="#87cee9"/><path d="m428.328125 258.617188s32.296875-24.246094 40.214844-56.570313l-23.949219-16.164063 31.929688-16.164062s7.683593-88.898438-48.195313-153.550781zm0 0" fill="#87cee9"/><g fill="#394d5c"><path d="m250.53125 161.636719h-193.960938c-4.460937 0-8.082031-3.617188-8.082031-8.082031 0-4.464844 3.621094-8.082032 8.082031-8.082032h193.960938c4.464844 0 8.082031 3.617188 8.082031 8.082032 0 4.464843-3.617187 8.082031-8.082031 8.082031zm0 0"/><path d="m250.53125 242.453125h-193.960938c-4.460937 0-8.082031-3.617187-8.082031-8.082031s3.621094-8.082032 8.082031-8.082032h193.960938c4.464844 0 8.082031 3.617188 8.082031 8.082032s-3.617187 8.082031-8.082031 8.082031zm0 0"/><path d="m250.53125 323.269531h-193.960938c-4.460937 0-8.082031-3.617187-8.082031-8.082031s3.621094-8.082031 8.082031-8.082031h193.960938c4.464844 0 8.082031 3.617187 8.082031 8.082031s-3.617187 8.082031-8.082031 8.082031zm0 0"/></g><path d="m379.839844 452.578125c-4.460938 0-8.078125-3.613281-8.082032-8.074219 0-.003906 0-.007812 0-.007812v-48.492188c0-4.460937 3.617188-8.082031 8.082032-8.082031 4.460937 0 8.082031 3.617187 8.082031 8.082031v48.492188c.003906 4.460937-3.613281 8.078125-8.074219 8.082031-.003906 0-.003906 0-.007812 0zm0 0" fill="#aabece"/><path d="m444.492188 436.414062c-4.460938.003907-8.078126-3.613281-8.082032-8.074218 0 0 0-.003906 0-.007813v-24.246093h-8.082031c-4.460937 0-8.082031-3.617188-8.082031-8.082032 0-4.460937 3.617187-8.082031 8.082031-8.082031h16.164063c4.460937 0 8.078124 3.613281 8.082031 8.074219v.007812 32.328125c.003906 4.460938-3.613281 8.078125-8.074219 8.082031 0 0-.003906 0-.007812 0zm0 0" fill="#aabece"/><path d="m40.410156 484.902344h242.449219c22.660156 0 40.410156-24.851563 40.410156-56.570313 0-27.832031-13.671875-50.367187-32.328125-55.476562v-260.804688c18.65625-5.109375 32.328125-27.644531 32.328125-55.476562 0-31.71875-17.75-56.57031275-40.410156-56.57031275h-242.449219c-22.660156 0-40.410156 24.85156275-40.410156 56.57031275v371.757812c0 31.71875 17.75 56.570313 40.410156 56.570313zm266.695313-56.570313c0 21.902344-11.105469 40.410157-24.246094 40.410157h-213.914063c.257813-.359376.445313-.804688.695313-1.171876.113281-.164062.238281-.304687.347656-.472656l.011719-.023437.042969-.0625.023437-.023438c.390625-.585937.667969-1.277343 1.035156-1.882812 1.210938-1.921875 2.308594-3.917969 3.285157-5.972657.058593-.128906.136719-.234374.195312-.363281.359375-.796875.589844-1.699219.917969-2.519531.898438-2.128906 1.683594-4.300781 2.355469-6.511719.035156-.117187.085937-.21875.121093-.335937l.003907-.050782c.773437-2.796874 1.382812-5.640624 1.820312-8.507812.140625-.898438.214844-1.820312.328125-2.734375.171875-1.425781.410156-2.832031.507813-4.277344.117187-1.796875.179687-3.644531.179687-5.5.328125-14.375-3.820312-28.496093-11.867187-40.410156h213.910156c13.140625 0 24.246094 18.507813 24.246094 40.410156zm-24.246094-412.164062c13.140625 0 24.246094 18.503906 24.246094 40.40625 0 21.902343-11.105469 40.410156-24.246094 40.410156h-213.914063c8.050782-11.914063 12.195313-26.035156 11.871094-40.410156-.023437-3.40625-.261718-6.804688-.71875-10.179688-.136718-1.105469-.316406-2.171875-.496094-3.25-.148437-.871093-.222656-1.769531-.402343-2.628906-.199219-.953125-.546875-1.824219-.777344-2.761719-.480469-1.945312-.984375-3.847656-1.605469-5.6875-.148437-.4375-.226562-.921875-.382812-1.355468v.003906l-.007813-.019532c-.417969-1.152343-.945312-2.207031-1.417969-3.3125-.691406-1.628906-1.410156-3.207031-2.210937-4.71875-.890625-1.675781-1.796875-3.335937-2.8125-4.855468-.089844-.140625-.199219-.25-.292969-.386719-.269531-.394531-.46875-.875-.746094-1.257813h213.914063zm-266.695313 40.40625c0-21.902344 11.105469-40.40625 24.246094-40.40625 1.507813.019531 3.007813.28125 4.433594.769531.738281.285156 1.453125.617188 2.140625 1 .769531.339844 1.511719.738281 2.226563 1.179688.355468.242187.707031.496093 1.058593.769531.847657.679687 1.648438 1.414062 2.398438 2.199219.359375.363281.738281.652343 1.085937 1.046874.441406.5.84375 1.109376 1.265625 1.65625.640625.824219 1.277344 1.648438 1.863281 2.570313.460938.722656.882813 1.503906 1.3125 2.28125.585938 1.070313 1.148438 2.175781 1.664063 3.34375.300781.667969.59375 1.335937.867187 2.035156.433594 1.109375.785157 2.300781 1.152344 3.480469.402344 1.289062.789063 2.585938 1.101563 3.933594.351562 1.507812.648437 3.050781.886719 4.632812.105468.699219.238281 1.386719.320312 2.097656.300781 2.457032.453125 4.933594.464844 7.410157 0 21.902343-11.105469 40.40625-24.246094 40.40625-4.460938 0-8.082031 3.621093-8.082031 8.082031 0 4.464844 3.621093 8.082031 8.082031 8.082031h234.371094v258.613281h-234.367188c-4.464844 0-8.082031 3.621094-8.082031 8.082032 0 4.464844 3.617187 8.082031 8.082031 8.082031 13.140625 0 24.242188 18.507813 24.242188 40.410156-.019532 2.242188-.160156 4.480469-.417969 6.710938-.082031.769531-.164063 1.539062-.273437 2.300781-.253907 1.789062-.597657 3.523438-.996094 5.21875-.136719.585938-.242188 1.183594-.398438 1.757812-.289062 1.082032-.679687 2.066407-1.023437 3.097657-.460938 1.378906-.90625 2.773437-1.464844 4.0625-.3125.726562-.6875 1.371093-1.023437 2.0625-.671876 1.40625-1.417969 2.777343-2.242188 4.101562-.75 1.179688-1.570312 2.3125-2.457031 3.390625-.363281.4375-.757813.871094-1.171875 1.308594-.925782 1.003906-1.929688 1.925781-3.007813 2.761719-.324219.25-.671875.472656-1.011719.707031-1.144531.789062-2.378906 1.445312-3.675781 1.949219-.230469.085937-.476562.144531-.714843.21875-1.40625.480469-2.878907.734375-4.367188.761719-13.140625 0-24.246094-18.507813-24.246094-40.410157v-371.757812zm0 0"/><path d="m484.578125 170.414062c.320313-3.722656 7.109375-90.945312-48.167969-157.15625v-5.171874c.003906-4.460938-3.613281-8.08203175-8.074218-8.08203175 0 0-.003907 0-.007813 0h-32.328125c-4.460938-.00390625-8.078125 3.60937475-8.078125 8.07031275v.011719 5.171874c-55.277344 66.207032-48.488281 153.433594-48.167969 157.152344.238282 2.792969 1.902344 5.257813 4.402344 6.519532l19.652344 9.945312-12.539063 8.46875c-2.804687 1.894531-4.136719 5.335938-3.332031 8.625 7.070312 28.867188 31.203125 51.175781 39.984375 58.515625v28.457031h-24.246094c-13.355469-.035156-24.210937 10.765625-24.246093 24.121094-.023438 10.289062 6.460937 19.464844 16.164062 22.878906v17.652344h-8.082031c-4.460938-.003906-8.078125 3.613281-8.082031 8.074219v.007812 113.144531c-.003907 4.460938 3.613281 8.078126 8.074218 8.082032h.007813 129.308593c4.460938.003906 8.078126-3.613282 8.082032-8.074219 0-.003906 0-.003906 0-.007813v-113.140624c0-4.460938-3.613282-8.078126-8.074219-8.082032-.003906 0-.007813 0-.007813 0h-8.082031v-17.652344c12.601563-4.429687 19.222657-18.238281 14.792969-30.839843-3.414062-9.703125-12.589844-16.1875-22.875-16.160157h-24.246094v-28.460937c8.78125-7.335937 32.910156-29.648437 39.984375-58.511719.800781-3.289062-.527343-6.730468-3.332031-8.628906l-12.542969-8.464844 19.652344-9.945312c2.5-1.265625 4.167969-3.730469 4.40625-6.519532zm-119.371094 35.023438 19.050781-12.855469c3.703126-2.5 4.675782-7.527343 2.175782-11.226562-.773438-1.140625-1.820313-2.066407-3.050782-2.6875l-27.742187-14.039063c-.488281-16.203125.253906-74.125 32.28125-124.121094v199.796876c-9.925781-9.90625-17.664063-21.785157-22.714844-34.867188zm103.53125 263.304688h-113.144531v-96.984376h113.144531zm-96.980469-113.144532v-16.164062h80.816407v16.164062zm96.980469-40.410156c-.003906 4.460938-3.621093 8.078125-8.082031 8.082031h-96.980469c-4.464843 0-8.082031-3.617187-8.082031-8.082031s3.617188-8.082031 8.082031-8.082031h96.980469c4.460938.003906 8.078125 3.621093 8.082031 8.082031zm-64.65625-24.242188v-274.777343h16.164063v274.777343zm64.609375-126.316406-27.742187 14.039063c-3.984375 2.015625-5.582031 6.878906-3.566407 10.863281.621094 1.230469 1.546876 2.277344 2.691407 3.050781l19.050781 12.855469c-5.050781 13.082031-12.789062 24.960938-22.714844 34.867188v-199.796876c32.027344 49.996094 32.769532 107.917969 32.28125 124.121094zm0 0"/><path d="m56.570312 161.636719h193.960938c4.464844 0 8.082031-3.617188 8.082031-8.082031 0-4.464844-3.617187-8.082032-8.082031-8.082032h-193.960938c-4.460937 0-8.082031 3.617188-8.082031 8.082032 0 4.464843 3.621094 8.082031 8.082031 8.082031zm0 0"/><path d="m56.570312 242.453125h193.960938c4.464844 0 8.082031-3.617187 8.082031-8.082031s-3.617187-8.082032-8.082031-8.082032h-193.960938c-4.460937 0-8.082031 3.617188-8.082031 8.082032.003907 4.464844 3.621094 8.082031 8.082031 8.082031zm0 0"/><path d="m56.570312 323.269531h193.960938c4.464844 0 8.082031-3.617187 8.082031-8.082031s-3.617187-8.082031-8.082031-8.082031h-193.960938c-4.460937 0-8.082031 3.617187-8.082031 8.082031s3.621094 8.082031 8.082031 8.082031zm0 0"/><path d="m379.839844 387.921875c-4.460938 0-8.078125 3.613281-8.082032 8.074219v.007812 48.492188c0 4.460937 3.617188 8.082031 8.082032 8.082031 4.460937 0 8.082031-3.617187 8.082031-8.082031v-48.492188c.003906-4.460937-3.613281-8.078125-8.074219-8.082031-.003906 0-.003906 0-.007812 0zm0 0"/><path d="m444.492188 387.921875h-16.164063c-4.460937 0-8.082031 3.621094-8.082031 8.082031 0 4.464844 3.617187 8.082032 8.082031 8.082032h8.082031v24.246093c0 4.464844 3.617188 8.082031 8.082032 8.082031 4.464843 0 8.082031-3.617187 8.082031-8.082031v-32.328125c.003906-4.460937-3.613281-8.078125-8.074219-8.082031 0 0-.003906 0-.007812 0zm0 0"/></svg>