<svg height="322pt" viewBox="-65 0 322 322.082" width="322pt" xmlns="http://www.w3.org/2000/svg"><path d="m191.042969 76.40625h-65.492188v130.984375l11.371094 32.746094h42.746094l11.375-32.746094zm0 0" fill="#fdbd40"/><path d="m141.921875 0h32.746094c9.042969 0 16.375 7.332031 16.375 16.371094v16.375h-65.492188v-16.375c0-9.039063 7.328125-16.371094 16.371094-16.371094zm0 0" fill="#cfdfe8"/><path d="m125.550781 32.746094h65.492188v43.660156h-65.492188zm0 0" fill="#5f79ba"/><path d="m125.550781 207.390625c5.136719-2.671875 10.660157-4.511719 16.371094-5.457031 5.710937.945312 11.238281 2.785156 16.375 5.457031v-130.984375h-32.746094zm0 0" fill="#e9686a"/><path d="m158.296875 207.390625c5.136719-2.671875 10.660156-4.511719 16.371094-5.457031 5.710937.945312 11.238281 2.785156 16.375 5.457031v-130.984375h-32.746094zm0 0" fill="#f98c96"/><path d="m150.398438 278.914062c2.179687 4.363282 7.484374 6.132813 11.84375 3.949219 1.710937-.855469 3.097656-2.238281 3.949218-3.949219l13.472656-38.777343h-42.738281zm0 0" fill="#e97424"/><path d="m125.550781 49.117188h49.117188v10.917968h-49.117188zm0 0" fill="#87cee9"/><g fill="#fdbd40"><path d="m87.347656 322c-3.015625 0-5.457031-2.441406-5.460937-5.457031v-16.375h-76.40625c-3.011719 0-5.4570315-2.441407-5.4570315-5.457031 0-3.011719 2.4453125-5.457032 5.4570315-5.457032h81.867187c3.011719 0 5.453125 2.441406 5.457032 5.453125v.003907 11.632812l24.261718-16.171875c.894532-.597656 1.949219-.917969 3.023438-.917969h49.121094c3.011718 0 5.457031 2.445313 5.457031 5.457032 0 3.015624-2.445313 5.457031-5.457031 5.457031h-47.46875l-31.367188 20.914062c-.898438.597657-1.953125.917969-3.027344.917969zm0 0"/><path d="m38.226562 278.339844h-32.746093c-3.011719 0-5.4570315-2.445313-5.4570315-5.457032 0-3.015624 2.4453125-5.457031 5.4570315-5.457031h32.746093c3.015626 0 5.457032 2.441407 5.457032 5.457031 0 3.011719-2.441406 5.457032-5.457032 5.457032zm0 0"/><path d="m70.972656 278.339844h-10.914062c-3.015625 0-5.457032-2.445313-5.457032-5.457032 0-3.015624 2.441407-5.457031 5.457032-5.457031h10.914062c3.015625 0 5.457032 2.441407 5.457032 5.457031 0 3.011719-2.441407 5.457032-5.457032 5.457032zm0 0"/></g></svg>